<svg xmlns="http://www.w3.org/2000/svg" width="1024" height="1024" viewBox="0 0 1024 1024">
  <polygon points="483.73,500.23 348.97,617.79 405.51,682.61 540.27,565.05" fill="#1B1B2A14"/>
  <circle cx="512" cy="532.64" r="43.01" fill="#1B1B2A14"/>
  <circle cx="377.24" cy="650.2" r="43.01" fill="#1B1B2A14"/>
  <polygon points="483.73,565.05 618.49,682.61 675.03,617.79 540.27,500.23" fill="#1B1B2A14"/>
  <circle cx="512" cy="532.64" r="43.01" fill="#1B1B2A14"/>
  <circle cx="646.76" cy="650.2" r="43.01" fill="#1B1B2A14"/>
  <polygon points="483.73,493.35 348.97,610.91 405.51,675.73 540.27,558.17" fill="#1B1B2A10"/>
  <circle cx="512" cy="525.76" r="43.01" fill="#1B1B2A10"/>
  <circle cx="377.24" cy="643.32" r="43.01" fill="#1B1B2A10"/>
  <polygon points="483.73,558.17 618.49,675.73 675.03,610.91 540.27,493.35" fill="#1B1B2A10"/>
  <circle cx="512" cy="525.76" r="43.01" fill="#1B1B2A10"/>
  <circle cx="646.76" cy="643.32" r="43.01" fill="#1B1B2A10"/>
  <polygon points="483.73,374.08 348.97,491.63 405.51,556.45 540.27,438.9" fill="#1B1B2A14"/>
  <circle cx="512" cy="406.49" r="43.01" fill="#1B1B2A14"/>
  <circle cx="377.24" cy="524.04" r="43.01" fill="#1B1B2A14"/>
  <polygon points="483.73,438.9 618.49,556.45 675.03,491.63 540.27,374.08" fill="#1B1B2A14"/>
  <circle cx="512" cy="406.49" r="43.01" fill="#1B1B2A14"/>
  <circle cx="646.76" cy="524.04" r="43.01" fill="#1B1B2A14"/>
  <polygon points="483.73,367.2 348.97,484.75 405.51,549.57 540.27,432.02" fill="#1B1B2A10"/>
  <circle cx="512" cy="399.61" r="43.01" fill="#1B1B2A10"/>
  <circle cx="377.24" cy="517.16" r="43.01" fill="#1B1B2A10"/>
  <polygon points="483.73,432.02 618.49,549.57 675.03,484.75 540.27,367.2" fill="#1B1B2A10"/>
  <circle cx="512" cy="399.61" r="43.01" fill="#1B1B2A10"/>
  <circle cx="646.76" cy="517.16" r="43.01" fill="#1B1B2A10"/>
  <polygon points="483.73,485.32 348.97,602.88 405.51,667.7 540.27,550.14" fill="#16C8A8"/>
  <circle cx="512" cy="517.73" r="43.01" fill="#16C8A8"/>
  <circle cx="377.24" cy="635.29" r="43.01" fill="#16C8A8"/>
  <polygon points="483.73,550.14 618.49,667.7 675.03,602.88 540.27,485.32" fill="#16C8A8"/>
  <circle cx="512" cy="517.73" r="43.01" fill="#16C8A8"/>
  <circle cx="646.76" cy="635.29" r="43.01" fill="#16C8A8"/>
  <polygon points="483.73,359.17 348.97,476.72 405.51,541.54 540.27,423.99" fill="#FFB23E"/>
  <circle cx="512" cy="391.58" r="43.01" fill="#FFB23E"/>
  <circle cx="377.24" cy="509.13" r="43.01" fill="#FFB23E"/>
  <polygon points="483.73,423.99 618.49,541.54 675.03,476.72 540.27,359.17" fill="#FFB23E"/>
  <circle cx="512" cy="391.58" r="43.01" fill="#FFB23E"/>
  <circle cx="646.76" cy="509.13" r="43.01" fill="#FFB23E"/>
</svg>
