<svg xmlns="http://www.w3.org/2000/svg" width="1024" height="1024" viewBox="0 0 1024 1024">
  <rect width="1024" height="1024" fill="#6C4CF1"/>
  <circle cx="512" cy="409.6" r="573.44" fill="#8A6CF73D"/>
  <polygon points="478.68,498.13 319.86,636.68 386.5,713.07 545.32,574.53" fill="#1B1B2A14"/>
  <circle cx="512" cy="536.33" r="50.69" fill="#1B1B2A14"/>
  <circle cx="353.18" cy="674.88" r="50.69" fill="#1B1B2A14"/>
  <polygon points="478.68,574.53 637.5,713.07 704.14,636.68 545.32,498.13" fill="#1B1B2A14"/>
  <circle cx="512" cy="536.33" r="50.69" fill="#1B1B2A14"/>
  <circle cx="670.82" cy="674.88" r="50.69" fill="#1B1B2A14"/>
  <polygon points="478.68,490.02 319.86,628.57 386.5,704.96 545.32,566.42" fill="#1B1B2A10"/>
  <circle cx="512" cy="528.22" r="50.69" fill="#1B1B2A10"/>
  <circle cx="353.18" cy="666.77" r="50.69" fill="#1B1B2A10"/>
  <polygon points="478.68,566.42 637.5,704.96 704.14,628.57 545.32,490.02" fill="#1B1B2A10"/>
  <circle cx="512" cy="528.22" r="50.69" fill="#1B1B2A10"/>
  <circle cx="670.82" cy="666.77" r="50.69" fill="#1B1B2A10"/>
  <polygon points="478.68,349.45 319.86,488 386.5,564.39 545.32,425.84" fill="#1B1B2A14"/>
  <circle cx="512" cy="387.65" r="50.69" fill="#1B1B2A14"/>
  <circle cx="353.18" cy="526.19" r="50.69" fill="#1B1B2A14"/>
  <polygon points="478.68,425.84 637.5,564.39 704.14,488 545.32,349.45" fill="#1B1B2A14"/>
  <circle cx="512" cy="387.65" r="50.69" fill="#1B1B2A14"/>
  <circle cx="670.82" cy="526.19" r="50.69" fill="#1B1B2A14"/>
  <polygon points="478.68,341.34 319.86,479.89 386.5,556.28 545.32,417.73" fill="#1B1B2A10"/>
  <circle cx="512" cy="379.54" r="50.69" fill="#1B1B2A10"/>
  <circle cx="353.18" cy="518.08" r="50.69" fill="#1B1B2A10"/>
  <polygon points="478.68,417.73 637.5,556.28 704.14,479.89 545.32,341.34" fill="#1B1B2A10"/>
  <circle cx="512" cy="379.54" r="50.69" fill="#1B1B2A10"/>
  <circle cx="670.82" cy="518.08" r="50.69" fill="#1B1B2A10"/>
  <polygon points="478.68,480.56 319.86,619.11 386.5,695.5 545.32,556.96" fill="#16C8A8"/>
  <circle cx="512" cy="518.76" r="50.69" fill="#16C8A8"/>
  <circle cx="353.18" cy="657.31" r="50.69" fill="#16C8A8"/>
  <polygon points="478.68,556.96 637.5,695.5 704.14,619.11 545.32,480.56" fill="#16C8A8"/>
  <circle cx="512" cy="518.76" r="50.69" fill="#16C8A8"/>
  <circle cx="670.82" cy="657.31" r="50.69" fill="#16C8A8"/>
  <polygon points="478.68,331.88 319.86,470.42 386.5,546.82 545.32,408.27" fill="#FFB23E"/>
  <circle cx="512" cy="370.07" r="50.69" fill="#FFB23E"/>
  <circle cx="353.18" cy="508.62" r="50.69" fill="#FFB23E"/>
  <polygon points="478.68,408.27 637.5,546.82 704.14,470.42 545.32,331.88" fill="#FFB23E"/>
  <circle cx="512" cy="370.07" r="50.69" fill="#FFB23E"/>
  <circle cx="670.82" cy="508.62" r="50.69" fill="#FFB23E"/>
</svg>
